/* XPM */
static char *_3e45805b6ae4428d5290782f698441b[] = {
/* columns rows colors chars-per-pixel */
"48 48 86 1 ",
"  c #9E1973",
". c #9F1973",
"X c #9C1874",
"o c #9D1874",
"O c #9E1874",
"+ c #9E1974",
"@ c #AC1C6F",
"# c #AD1D6F",
"$ c #AF1D6E",
"% c #AE1D6F",
"& c #AF1D6F",
"* c #B31E6D",
"= c #B01D6E",
"- c #B11E6E",
"; c #B21E6E",
": c #B41E6D",
"> c #B41F6D",
", c #B51F6D",
"< c #B71F6C",
"1 c #B61F6D",
"2 c #B71F6D",
"3 c #B81F6C",
"4 c #A01973",
"5 c #A11973",
"6 c #A21A72",
"7 c #A31A72",
"8 c #A51A71",
"9 c #A51B71",
"0 c #A61B71",
"q c #A71B71",
"w c #A41A72",
"e c #A51A72",
"r c #A91B70",
"t c #A81B71",
"y c #A91B71",
"u c #A91C70",
"i c #AA1C70",
"p c #AB1C70",
"a c #AC1C70",
"s c #BA206B",
"d c #BB206B",
"f c #BB216B",
"g c #BC216B",
"h c #BD216B",
"j c #BE216A",
"k c #BF216A",
"l c #BE216B",
"z c #B8206C",
"x c #B9206C",
"c c #BA206C",
"v c #C82467",
"b c #C92467",
"n c #CA2467",
"m c #CB2467",
"M c #CA2567",
"N c #CB2567",
"B c #CF2665",
"V c #CC2566",
"C c #CD2566",
"Z c #CE2566",
"A c #CE2666",
"S c #C12269",
"D c #C22269",
"F c #C32269",
"G c #C32369",
"H c #C0226A",
"J c #C1226A",
"K c #C42368",
"L c #C52368",
"P c #C42369",
"I c #C62368",
"U c #C72368",
"Y c #C72468",
"T c #C82468",
"R c #D02665",
"E c #D12665",
"W c #D22764",
"Q c #D32764",
"! c #D22665",
"~ c #D22765",
"^ c #D42764",
"/ c #D52764",
"( c #D62764",
") c #D72863",
"_ c #D62864",
"` c None",
/* pixels */
"````````````````````````````````````````````````",
"````````````````````````````````````````````````",
"````````````````````````````````````````````````",
"````````````````````````````````````````````````",
"````````````````````````````````````````````````",
"````````````````````````````````````````````````",
"````````````````````````````````````````````````",
"````````````````````````````````````````````````",
"``````````````````XX`````XXX````````````````````",
"````````````````447````XXXXXXX``````````````````",
"```````````````7q7```7.XXXXXXXXX````````````````",
"``````````````qqq```74X7`````XXX````````````````",
"``````````````qq````777```````XXX```````````````",
"`````````````iiy```qq7`````````XX```````````````",
"`````````````ai````yqq`````````7.X``````````````",
"`````````````%%````iy``````````4X7``````````````",
"`````````````&a````ii``````````q7X``````````````",
"`````````````--````aa``````````7q7``````````````",
"`````````````--````&a``````````qq```````````````",
"`````````````,,````--`````````iqq```````````````",
"`````````````3,````--````````iai````````````````",
"`````````````z3````,-`````%%a%%`````````````````",
"`````````````zz````,,`````--%%%%````````````````",
"`````````````lz````33````````-%%%```````````````",
"`````````````ll````zz``````````--%``````````````",
"`````````````Fl````ss```````````,--`````````````",
"`````````````JJ````ll```````````---`````````````",
"`````````````FF````ll````````````,,`````````````",
"`````````````KK````Fl````````````,,`````````````",
"`````````````UK````FF````````````33`````````````",
"`````````````TK````KF````````````zz`````````````",
"`````````````TT````KK````````````sl`````````````",
"`````````````NT````YK````````````ll`````````````",
"`````````````ZZ````bT````````````ll`````````````",
"`````````````ZZ````Zbb``````````lFF`````````````",
"`````````````EE````````````````KGF``````````````",
"`````````````~E```````````````YKYF``````````````",
"`````````````^~~EEEZ~ZZZZ````bTTY```````````````",
"`````````````)__WW~EZ~ZZ````bbb`````````````````",
"`````````````____Q_~~``````ZZ```````````````````",
"````````````````````````````````````````````````",
"````````````````````````````````````````````````",
"````````````````````````````````````````````````",
"````````````````````````````````````````````````",
"````````````````````````````````````````````````",
"````````````````````````````````````````````````",
"````````````````````````````````````````````````",
"````````````````````````````````````````````````"
};
