/* XPM */
static char *_acaa292486f406bd57b343b2f2e5dee[] = {
/* columns rows colors chars-per-pixel */
"32 32 69 1 ",
"  c #9E1973",
". c #9F1973",
"X c #9C1874",
"o c #9D1874",
"O c #9E1974",
"+ c #AD1D6F",
"@ c #AE1D6F",
"# c #AF1D6F",
"$ c #B01D6E",
"% c #B01D6F",
"& c #B11E6E",
"* c #B21E6E",
"= c #B31E6E",
"- c #B41F6D",
"; c #B51F6D",
": c #B61F6D",
"> c #B41E6E",
", c #A01973",
"< c #A11A73",
"1 c #A21A72",
"2 c #A31A72",
"3 c #A21A73",
"4 c #A61B71",
"5 c #A71B71",
"6 c #A51A72",
"7 c #A51B72",
"8 c #A81B71",
"9 c #A91C70",
"0 c #AA1C70",
"q c #AB1C70",
"w c #AC1C70",
"e c #B7206C",
"r c #BB206B",
"t c #BB216B",
"y c #BC216B",
"u c #BD216B",
"i c #BF216A",
"p c #BE216B",
"a c #B8206C",
"s c #B9206C",
"d c #BA206C",
"f c #C92467",
"g c #CA2467",
"h c #CA2567",
"j c #CB2567",
"k c #CF2665",
"l c #CC2566",
"z c #CD2566",
"x c #CE2666",
"c c #C22269",
"v c #C32369",
"b c #C0226A",
"n c #C1226A",
"m c #C2226A",
"M c #C52368",
"N c #C42369",
"B c #C52369",
"V c #C62368",
"C c #C72368",
"Z c #C72468",
"A c #C82468",
"S c #D02665",
"D c #D12665",
"F c #D32764",
"G c #D22665",
"H c #D22765",
"J c #D32765",
"K c #D52764",
"L c None",
/* pixels */
"LLLLLLLLLLLLLLLLLLLLLLLLLLLLLLLL",
"LLLLLLLLLLLLLLLLLLLLLLLLLLLLLLLL",
"LLLLLLLLLLLLLLLLLLLLLLLLLLLLLLLL",
"LLLLLLLLLLLLLLLLLLLLLLLLLLLLLLLL",
"LLLLLLLLLLLLLLLLLLLLLLLLLLLLLLLL",
"LLLLLLLLLLLLLLLLLLLLLLLLLLLLLLLL",
"LLLLLLLLLLLOOLLOOXXXLLLLLLLLLLLL",
"LLLLLLLLLL53LL3OXXXXOLLLLLLLLLLL",
"LLLLLLLLL55LL33LLLLLXXLLLLLLLLLL",
"LLLLLLLLL0LLL7LLLLLLOOLLLLLLLLLL",
"LLLLLLLL#wLL08LLLLLLL3LLLLLLLLLL",
"LLLLLLLL##LL0wLLLLLLL,LLLLLLLLLL",
"LLLLLLLL&&LL&wLLLLLL55LLLLLLLLLL",
"LLLLLLLL--LL&&LLLLLL50LLLLLLLLLL",
"LLLLLLLLs-LL--LLLLwwwLLLLLLLLLLL",
"LLLLLLLLssLL--LLL&w&wLLLLLLLLLLL",
"LLLLLLLLusLLddLLLLLL&%LLLLLLLLLL",
"LLLLLLLLnnLLsdLLLLLLL-&LLLLLLLLL",
"LLLLLLLLnnLLuuLLLLLLLL-LLLLLLLLL",
"LLLLLLLLMZLLnuLLLLLLLL--LLLLLLLL",
"LLLLLLLLVVLLvnLLLLLLLLdeLLLLLLLL",
"LLLLLLLLggLLnZLLLLLLLLddLLLLLLLL",
"LLLLLLLLxgLLgZLLLLLLLLpLLLLLLLLL",
"LLLLLLLLxxLLggLLLLLLLNnLLLLLLLLL",
"LLLLLLLLJDLLLLLLLLLLNNLLLLLLLLLL",
"LLLLLLLLJJJDDLxxLLLggNLLLLLLLLLL",
"LLLLLLLLLLLLLLLLLLLLLLLLLLLLLLLL",
"LLLLLLLLLLLLLLLLLLLLLLLLLLLLLLLL",
"LLLLLLLLLLLLLLLLLLLLLLLLLLLLLLLL",
"LLLLLLLLLLLLLLLLLLLLLLLLLLLLLLLL",
"LLLLLLLLLLLLLLLLLLLLLLLLLLLLLLLL",
"LLLLLLLLLLLLLLLLLLLLLLLLLLLLLLLL"
};
