/* XPM */
static char *aff38fca31eb4159b057ea32a40ebe2e[] = {
/* columns rows colors chars-per-pixel */
"16 16 24 1 ",
"  c #9C1874",
". c #AE1D6F",
"X c #AF1D6F",
"o c #B11E6E",
"O c #B41E6D",
"+ c #B41E6E",
"@ c #A11973",
"# c #A21A73",
"$ c #A61B71",
"% c #A51A72",
"& c #A81B70",
"* c #AA1C70",
"= c #AC1D70",
"- c #BE216A",
"; c #BE216B",
": c #BF226A",
"> c #B9206C",
", c #BA206C",
"< c #CE2566",
"1 c #C32369",
"2 c #C62368",
"3 c #C82468",
"4 c #D32764",
"5 c None",
/* pixels */
"5555555555555555",
"5555555555555555",
"5555555555555555",
"55555#5   555555",
"5555&5%#55 55555",
"5555X5*555#55555",
"5555+5X555%55555",
"5555>5O55X=55555",
"5555:5>555O55555",
"555515:5555+5555",
"55552515555>5555",
"5555<53555::5555",
"5555455555255555",
"5555555555555555",
"5555555555555555",
"5555555555555555"
};
